<svg width="512" height="512" xmlns="http://www.w3.org/2000/svg" preserveAspectRatio="xMidYMid meet">
 <metadata>Created by potrace 1.15, written by Peter Selinger 2001-2017</metadata>

 <g>
  <title>background</title>
  <rect fill="none" id="canvas_background" height="402" width="582" y="-1" x="-1"/>
 </g>
 <g>
  <title>Layer 1</title>
  <g id="svg_31">
   <g transform="matrix(0.5022786715657368,0,0,0.5022786715657368,0,0) " id="svg_9">
    <path fill="#ffffff" d="m609.359729,446.939247l-99.671,99.695l-99.671,-99.707c-4.752,-4.752 -12.439,-4.752 -17.191,0c-4.74,4.752 -4.74,12.451 0,17.203l108.261,108.297l0,0l0,0c4.74,4.752 12.439,4.752 17.179,0l108.261,-108.296c4.74,-4.752 4.74,-12.463 0,-17.215c-4.728,-4.729 -12.428,-4.729 -17.168,0.023z" id="svg_7"/>
    <g id="svg_10"/>
    <g id="svg_11"/>
    <g id="svg_12"/>
    <g id="svg_13"/>
    <g id="svg_14"/>
    <g id="svg_15"/>
   </g>
   <g transform="matrix(0.5022786715657368,0,0,0.5022786715657368,0,0) " id="svg_16"/>
   <g transform="matrix(0.5022786715657368,0,0,0.5022786715657368,0,0) " id="svg_17"/>
   <g transform="matrix(0.5022786715657368,0,0,0.5022786715657368,0,0) " id="svg_18"/>
   <g transform="matrix(0.5022786715657368,0,0,0.5022786715657368,0,0) " id="svg_19"/>
   <g transform="matrix(0.5022786715657368,0,0,0.5022786715657368,0,0) " id="svg_20"/>
   <g transform="matrix(0.5022786715657368,0,0,0.5022786715657368,0,0) " id="svg_21"/>
   <g transform="matrix(0.5022786715657368,0,0,0.5022786715657368,0,0) " id="svg_22"/>
   <g transform="matrix(0.5022786715657368,0,0,0.5022786715657368,0,0) " id="svg_23"/>
   <g transform="matrix(0.5022786715657368,0,0,0.5022786715657368,0,0) " id="svg_24"/>
   <g transform="matrix(0.5022786715657368,0,0,0.5022786715657368,0,0) " id="svg_25"/>
   <g transform="matrix(0.5022786715657368,0,0,0.5022786715657368,0,0) " id="svg_26"/>
   <g transform="matrix(0.5022786715657368,0,0,0.5022786715657368,0,0) " id="svg_27"/>
   <g transform="matrix(0.5022786715657368,0,0,0.5022786715657368,0,0) " id="svg_28"/>
   <g transform="matrix(0.5022786715657368,0,0,0.5022786715657368,0,0) " id="svg_29"/>
   <g transform="matrix(0.5022786715657368,0,0,0.5022786715657368,0,0) " id="svg_30"/>
  </g>
 </g>
</svg>