<svg width="64" height="64" xmlns="http://www.w3.org/2000/svg">

 <g>
  <title>background</title>
  <rect fill="none" id="canvas_background" height="402" width="582" y="-1" x="-1"/>
 </g>
 <g>
  <title>Layer 1</title>
  <path stroke-width="0" id="svg_1" fill="#3500d3" d="m57.953,41.502c1.252,-1.101 2.047,-2.708 2.047,-4.502c0,-3.309 -2.691,-6 -6,-6s-6,2.691 -6,6c0,2.243 1.239,4.2 3.067,5.229c-1.983,1.272 -3.372,3.418 -3.577,5.899l-0.403,4.872l-5.087,0c-1.654,0 -3,1.346 -3,3s1.346,3 3,3l4,0l0,4l17,0l0,-14.231c0,-3.325 -2.103,-6.161 -5.047,-7.267zm-3.953,-8.502c2.206,0 4,1.794 4,4s-1.794,4 -4,4s-4,-1.794 -4,-4s1.794,-4 4,-4zm7,28l-13,0l0,-2l0.347,0c2.604,0 4.744,-1.955 4.979,-4.547l0.669,-7.362l-1.992,-0.181l-0.669,7.362c-0.141,1.555 -1.425,2.728 -2.987,2.728l-6.347,0c-0.551,0 -1,-0.449 -1,-1s0.449,-1 1,-1l5.087,0c1.041,0 1.897,-0.782 1.992,-1.827l0.404,-4.88c0.246,-2.968 2.77,-5.293 5.748,-5.293c3.181,0 5.769,2.588 5.769,5.769l0,12.231zm-43,-2l4,0c1.654,0 3,-1.346 3,-3s-1.346,-3 -3,-3l-5.086,0.008l-0.404,-4.88c-0.206,-2.481 -1.595,-4.627 -3.577,-5.899c1.828,-1.029 3.067,-2.986 3.067,-5.229c0,-3.309 -2.691,-6 -6,-6s-6,2.691 -6,6c0,1.794 0.795,3.401 2.047,4.502c-2.944,1.106 -5.047,3.942 -5.047,7.267l0,14.231l17,0l0,-4zm-8,-26c2.206,0 4,1.794 4,4s-1.794,4 -4,4s-4,-1.794 -4,-4s1.794,-4 4,-4zm6,28l-13,0l0,-12.231c0,-3.181 2.588,-5.769 5.769,-5.769c2.978,0 5.503,2.325 5.749,5.293l0.404,4.888c0.094,1.037 0.95,1.819 1.991,1.819l5.087,0c0.551,0 1,0.449 1,1s-0.449,1 -1,1l-6.347,0c-1.562,0 -2.846,-1.173 -2.987,-2.728l-0.669,-7.362l-1.992,0.181l0.669,7.362c0.235,2.592 2.375,4.547 4.979,4.547l0.347,0l0,2zm37,-34l2,0l0,2l-2,0l0,-2zm2,-2l-2,0l0,-2l2,0l0,2zm-44,4l-2,0l0,-2l2,0l0,2zm0,-4l-2,0l0,-2l2,0l0,2zm0,-11.084c0,-0.505 0.411,-0.916 0.916,-0.916c0.32,0 0.621,0.17 0.785,0.445l3.299,5.499l3.566,-5.944l1.516,0c0.149,1.214 0.502,2.404 1.048,3.497l2.441,4.882c-0.931,0.509 -1.571,1.487 -1.571,2.621c0,0.309 0.06,0.601 0.148,0.882l-1.587,1.587l1.35,2.366c-0.104,0.227 -0.2,0.455 -0.286,0.685l-2.625,0.717l0,5.526l2.625,0.717c0.086,0.23 0.182,0.458 0.286,0.685l-1.35,2.366l3.908,3.908l2.366,-1.35c0.227,0.104 0.455,0.2 0.685,0.286l0.717,2.625l5.526,0l0.717,-2.625c0.23,-0.086 0.458,-0.182 0.685,-0.286l2.366,1.35l3.908,-3.908l-1.35,-2.366c0.104,-0.227 0.2,-0.455 0.286,-0.685l2.625,-0.717l0,-5.526l-2.625,-0.718c-0.086,-0.229 -0.181,-0.458 -0.286,-0.685l1.35,-2.366l-1.587,-1.587c0.088,-0.28 0.148,-0.572 0.148,-0.881c0,-1.134 -0.64,-2.112 -1.571,-2.621l2.441,-4.882c0.546,-1.094 0.899,-2.284 1.048,-3.497l1.516,0l3.566,5.944l3.299,-5.5c0.165,-0.274 0.466,-0.444 0.785,-0.444c0.505,0 0.916,0.411 0.916,0.916l0,7.084l2,0l0,-7.084c0,-1.608 -1.308,-2.916 -2.916,-2.916c-1.019,0 -1.976,0.542 -2.5,1.416l-1.584,2.64l-2.434,-4.056l-2.602,0c-0.367,-5.574 -5.007,-10 -10.672,-10l-0.584,0c-5.665,0 -10.305,4.426 -10.672,10l-2.602,0l-2.434,4.056l-1.584,-2.64c-0.524,-0.874 -1.482,-1.416 -2.5,-1.416c-1.608,0 -2.916,1.308 -2.916,2.916l0,7.084l2,0l0,-7.084zm27,9.084c0.551,0 1,0.449 1,1s-0.449,1 -1,1l-12,0c-0.551,0 -1,-0.449 -1,-1s0.449,-1 1,-1l12,0zm-2,10c0,2.206 -1.794,4 -4,4s-4,-1.794 -4,-4c0,-0.393 0.058,-0.779 0.168,-1.149c1.102,0.724 2.418,1.149 3.832,1.149s2.73,-0.425 3.831,-1.149c0.111,0.37 0.169,0.756 0.169,1.149zm-4,-2c-2.414,0 -4.434,-1.721 -4.899,-4l9.798,0c-0.465,2.279 -2.485,4 -4.899,4zm10,0.763l0,2.474l-2.193,0.599l-0.162,0.525c-0.142,0.46 -0.334,0.921 -0.572,1.371l-0.256,0.486l1.129,1.979l-1.75,1.75l-1.979,-1.129l-0.486,0.256c-0.449,0.237 -0.91,0.43 -1.371,0.572l-0.525,0.162l-0.598,2.192l-2.474,0l-0.6,-2.193l-0.525,-0.162c-0.46,-0.142 -0.922,-0.334 -1.372,-0.572l-0.485,-0.256l-1.978,1.128l-1.75,-1.749l1.129,-1.979l-0.256,-0.486c-0.237,-0.449 -0.43,-0.91 -0.572,-1.371l-0.162,-0.525l-2.192,-0.598l0,-2.474l2.193,-0.6l0.162,-0.525c0.142,-0.46 0.334,-0.922 0.572,-1.372l0.256,-0.485l-1.128,-1.978l0.3,-0.3c0.214,0.141 0.452,0.246 0.7,0.329c0.161,1.354 0.707,2.591 1.529,3.595c-0.381,0.801 -0.584,1.676 -0.584,2.573c0,3.309 2.691,6 6,6s6,-2.691 6,-6c0,-0.898 -0.203,-1.772 -0.584,-2.572c0.823,-1.004 1.368,-2.242 1.53,-3.595c0.248,-0.083 0.485,-0.188 0.7,-0.329l0.3,0.3l-1.128,1.978l0.256,0.485c0.237,0.45 0.43,0.911 0.572,1.372l0.162,0.525l2.192,0.599zm-10.292,-28.763l0.584,0c4.802,0 8.708,3.906 8.708,8.708c0,1.345 -0.318,2.691 -0.919,3.895l-2.699,5.397l-4.382,0l0,-5.142c1.72,-0.447 3,-2 3,-3.858c0,-2.206 -1.794,-4 -4,-4s-4,1.794 -4,4c0,1.858 1.28,3.411 3,3.858l0,5.142l-4.382,0l-2.699,-5.397c-0.601,-1.204 -0.919,-2.55 -0.919,-3.895c0,-4.802 3.906,-8.708 8.708,-8.708zm0.292,11c-1.103,0 -2,-0.897 -2,-2s0.897,-2 2,-2s2,0.897 2,2s-0.897,2 -2,2z"/>
 </g>
</svg>