<svg id="Layer_35" enable-background="new 0 0 64 64" height="512" viewBox="0 0 64 64" width="512" xmlns="http://www.w3.org/2000/svg" xmlns:xlink="http://www.w3.org/1999/xlink"><linearGradient id="SVGID_1_" gradientUnits="userSpaceOnUse" x1="32" x2="32" y1="63" y2="1"><stop offset="0" stop-color="#9f2fff"/><stop offset="1" stop-color="#0bb1d3"/></linearGradient><path d="m62.745 57.139-5.745-15.32v-11.819c0-4.663-2.921-8.647-7.025-10.245 1.825-1.265 3.025-3.371 3.025-5.755 0-3.86-3.141-7-7-7s-7 3.14-7 7c0 1.958.81 3.728 2.111 5h-13.909l1.798-2.697v-3.404c2.279-.465 4-2.484 4-4.899v-7h-8v2c0 1.103-.897 2-2 2s-2-.897-2-2v-2h-8v2c0 1.103-.897 2-2 2s-2-.897-2-2v-2h-8v7c0 2.414 1.721 4.434 4 4.899v3.404l3.962 5.943-3.912 31.29-4.05 4.05v5.414h32v-5.414l-4.05-4.05-1.752-14.016 15.802-7.902v6.012l-4.797 5.596c-.775.906-1.203 2.062-1.203 3.253v12.521c0 2.206 1.794 4 4 4s4-1.794 4-4l-.001-10.769 3.384-4.121 6.921 16.439c.628 1.488 2.077 2.45 3.691 2.45 2.208.001 4.005-1.795 4.005-4.004v-.45c0-.483-.086-.957-.255-1.406zm-21.745-43.139c0-2.757 2.243-5 5-5s5 2.243 5 5-2.243 5-5 5-5-2.243-5-5zm-18 5c-1.474 0-2.75.81-3.444 2h-9.021l-2.667-4h18.263l-1.333 2zm2.633 8h10.131l-9.535 4.768zm-2.016 0 3.25 26h-19.734l3.75-30h8.117c0 2.206 1.794 4 4 4zm3.969 28 2 2h-25.172l2-2zm-.586-42v2h-20v-2zm-24-5v-5h4c0 2.206 1.794 4 4 4s4-1.794 4-4h4c0 2.206 1.794 4 4 4s4-1.794 4-4h4v5c0 1.654-1.346 3-3 3h-22c-1.654 0-3-1.346-3-3zm0 53v-2h28v2zm23.935-23.585-.443-3.542 13.744-6.873h2.764v2.382zm34.065 21.58c0 1.106-.899 2.005-2.005 2.005-.809 0-1.534-.482-1.848-1.227l-7.483-17.773h-2.137l-4.074 4.963c-.292.356-.453.807-.453 1.268v10.769c0 1.103-.897 2-2 2s-2-.897-2-2v-12.521c0-.715.257-1.409.722-1.952l5.278-6.157v-13.37h-22c-1.103 0-2-.897-2-2s.897-2 2-2h23c4.963 0 9 4.038 9 9v12.181l5.873 15.661c.084.224.127.461.127.703zm-47-9.995h2v2h-2zm4 0h2v2h-2zm4 0h2v2h-2zm-8-22h-2v-2h2zm4 0h-2v-2h2zm-8 22h2v2h-2z" fill="url(#SVGID_1_)"/></svg>