<svg height="496pt" viewBox="0 0 496 496.01299" width="496pt" xmlns="http://www.w3.org/2000/svg" xmlns:xlink="http://www.w3.org/1999/xlink"><linearGradient id="linear0" gradientUnits="userSpaceOnUse" x1="248.007371" x2="248.007371" y1="496.012987" y2=".000987"><stop offset="0" stop-color="#9f2fff"/><stop offset="1" stop-color="#0bb1d3"/></linearGradient><path d="m11.773438 447.566406 62.867187-62.867187 30.574219 6.113281 6.113281 30.578125-62.863281 62.863281 11.109375 4.558594c11.625 4.777344 23.890625 7.199219 36.433593 7.199219 2.777344 0 5.582032-.117188 8.414063-.367188 33.3125-2.886719 63.394531-24.496093 78.503906-56.390625 5.121094-10.800781 8.105469-21.976562 8.867188-33.21875 1.253906-18.34375 8.40625-34.902344 20.132812-46.628906l147.457031-147.457031c11.738282-11.726563 28.296876-18.878907 46.640626-20.136719 11.238281-.765625 22.414062-3.75 33.214843-8.863281 31.898438-15.113281 53.503907-45.191407 56.394531-78.503907 1.335938-15.457031-.960937-30.550781-6.832031-44.855468l-4.5625-11.113282-62.863281 62.863282-30.566406-6.125-6.113282-30.578125 62.863282-62.863281-11.109375-4.558594c-14.210938-5.84375-29.242188-8.210938-44.859375-6.832032-33.308594 2.886719-63.390625 24.496094-78.503906 56.390626-5.117188 10.800781-8.101563 21.976562-8.863282 33.214843-1.253906 18.34375-8.40625 34.90625-20.136718 46.640625l-147.460938 147.457032c-11.738281 11.726562-28.296875 18.878906-46.640625 20.136718-11.242187.765625-22.417969 3.75-33.21875 8.863282-31.894531 15.109374-53.503906 45.191406-56.390625 78.503906-1.335938 15.457031.960938 30.550781 6.839844 44.855468zm107.035156-70.351562-49.425782-9.890625-19.488281 19.488281c5.761719-20.0625 24.226563-34.800781 46.113281-34.800781 26.472657 0 48 21.527343 48 48 0 21.890625-14.738281 40.351562-34.800781 46.113281l19.480469-19.480469zm258.398437-258.402344 49.425781 9.886719 19.480469-19.476563c-5.753906 20.054688-24.21875 34.789063-46.105469 34.789063-26.472656 0-48-21.527344-48-48 0-21.886719 14.734376-40.351563 34.800782-46.109375l-19.480469 19.480468zm-360.894531 274.167969c2.398438-27.671875 20.527344-52.742188 47.3125-65.429688 8.980469-4.257812 18.222656-6.738281 27.460938-7.371093 22.203124-1.511719 42.394531-10.320313 56.859374-24.78125l147.453126-147.457032c14.472656-14.464844 23.273437-34.65625 24.785156-56.855468.632812-9.242188 3.113281-18.480469 7.367187-27.464844 12.6875-26.785156 37.761719-44.902344 65.433594-47.3125 8.78125-.742188 17.269531-.105469 25.542969 1.871094l-14.023438 14.023437c-1.570312-.117187-3.054687-.191406-4.496094-.191406-35.289062 0-64 28.714843-64 64 0 35.289062 28.710938 64 64 64 35.289063 0 64-28.710938 64-64 0-1.4375-.074218-2.925781-.199218-4.488281l14.03125-14.03125c1.984375 8.304687 2.617187 16.855468 1.863281 25.554687-2.398437 27.671875-20.527344 52.742187-47.3125 65.429687-8.984375 4.257813-18.222656 6.738282-27.464844 7.367188-22.199219 1.519531-42.390625 10.320312-56.855469 24.785156l-147.445312 147.457032c-14.472656 14.464843-23.273438 34.65625-24.785156 56.855468-.632813 9.238282-3.113282 18.480469-7.367188 27.464844-12.6875 26.78125-37.761718 44.902344-65.433594 47.3125-2.359374.191406-4.703124.292969-7.023437.292969h-.007813c-6.28125 0-12.472656-.726563-18.511718-2.175781l14.023437-14.023438c1.558594.128906 3.046875.199219 4.488281.199219 35.289063 0 64-28.710938 64-64 0-35.285157-28.710937-64-64-64-35.289062 0-64 28.714843-64 64 0 1.441406.070313 2.929687.199219 4.488281l-14.03125 14.03125c-1.992187-8.308594-2.617187-16.855469-1.863281-25.550781zm218.320312-96.28125 62.0625-62.0625c4.710938-4.710938 7.3125-10.984375 7.3125-17.65625v-24.96875h-24.96875c-6.671874 0-12.945312 2.601562-17.65625 7.3125l-62.0625 62.066406c-4.714843 4.710937-7.3125 10.980469-7.3125 17.65625v24.964844h24.96875c6.671876 0 12.941407-2.597657 17.65625-7.3125zm-26.625-17.652344c0-2.402344.9375-4.648437 2.625-6.347656l62.0625-62.0625c1.695313-1.6875 3.945313-2.625 6.34375-2.625h8.96875v8.96875c0 2.402343-.9375 4.648437-2.625 6.34375l-62.0625 62.066406c-1.695312 1.6875-3.945312 2.621094-6.34375 2.621094h-8.96875zm117.65625-97.378906-11.3125-11.3125 16-16 11.3125 11.3125zm-160 160-11.3125-11.3125 16-16 11.3125 11.3125zm0 0" fill="url(#linear0)"/></svg>