<svg width="512" height="512" xmlns="http://www.w3.org/2000/svg" preserveAspectRatio="xMidYMid meet">
 <metadata>Created by potrace 1.15, written by Peter Selinger 2001-2017</metadata>

 <g>
  <title>background</title>
  <rect fill="none" id="canvas_background" height="402" width="582" y="-1" x="-1"/>
 </g>
 <g>
  <title>Layer 1</title>
  <g id="svg_1" fill="#000000" transform="translate(0,512) scale(0.10000000149011612,-0.10000000149011612) ">
   <path fill="#7863ff" id="svg_2" d="m245,5096c1,-82 409,-4581 416,-4588c12,-11 1813,-510 1842,-510c27,0 1834,499 1845,510c7,6 416,4521 417,4593c0,16 -114,17 -2260,17l-2260,0l0,-22zm3675,-970c-7,-62 -45,-487 -45,-505c0,-10 -223,-13 -1080,-13l-1080,0l0,-22c0,-35 40,-500 46,-525l4,-23l1030,0l1030,0l-6,-42c-3,-24 -38,-416 -79,-871c-40,-456 -75,-830 -77,-832c-1,-2 -263,-75 -581,-163l-577,-160l-583,162l-582,161l-37,405c-20,223 -37,424 -37,448l-1,42l285,0l284,0l5,-32c3,-18 13,-118 22,-223c9,-104 18,-192 19,-193c2,-2 142,-41 312,-87l308,-84l309,84c170,46 312,88 315,94c4,6 19,156 34,333c16,178 30,335 33,351l6,27l-976,0c-604,0 -977,4 -981,9c-4,8 -155,1653 -155,1697c0,12 223,14 1421,14l1420,0l-6,-52z"/>
  </g>
 </g>
</svg>