<?xml version="1.0" encoding="iso-8859-1"?>
<!-- Generator: Adobe Illustrator 22.1.0, SVG Export Plug-In . SVG Version: 6.00 Build 0)  -->
<svg xmlns="http://www.w3.org/2000/svg" xmlns:xlink="http://www.w3.org/1999/xlink" version="1.1" id="Layer_1_1_" x="0px" y="0px" viewBox="0 0 64 64" style="enable-background:new 0 0 64 64;" xml:space="preserve" width="512" height="512">
<linearGradient id="SVGID_1_" gradientUnits="userSpaceOnUse" x1="32" y1="58" x2="32" y2="6">
	<stop offset="0" style="stop-color:#9F2FFF"/>
	<stop offset="1" style="stop-color:#0BB1D3"/>
</linearGradient>
<path style="fill:url(#SVGID_1_);" d="M13,42h2v2h-2V42z M9,44h2v-2H9V44z M5,44h2v-2H5V44z M63,11v32c0,2.757-2.243,5-5,5H45v4h2  c1.654,0,3,1.346,3,3v3H14v-3c0-1.654,1.346-3,3-3h2v-4H6c-2.757,0-5-2.243-5-5V11c0-2.757,2.243-5,5-5h52C60.757,6,63,8.243,63,11z   M3,11v27h12.303l3,2H61V11c0-1.654-1.346-3-3-3H6C4.346,8,3,9.346,3,11z M47,54H17c-0.551,0-1,0.449-1,1v1h32v-1  C48,54.449,47.551,54,47,54z M61,43v-1H17.697l-3-2H3v3c0,1.654,1.346,3,3,3h15v6h22v-4H23v-2h35C59.654,46,61,44.654,61,43z M57,12  h-2v2h2V12z M53,12H22v2h31V12z"/>
</svg>
