<svg width="512" height="512" xmlns="http://www.w3.org/2000/svg">

 <g>
  <title>background</title>
  <rect fill="none" id="canvas_background" height="514" width="514" y="-1" x="-1"/>
 </g>
 <g>
  <title>Layer 1</title>
  <path fill="#ffffff" id="svg_1" d="m439,-1l-362,0c-41.355469,0 -75,33.644531 -75,75l0,362c0,41.355469 33.644531,75 75,75l362,0c41.355469,0 75,-33.644531 75,-75l0,-362c0,-41.355469 -33.644531,-75 -75,-75zm45,437c0,24.8125 -20.1875,45 -45,45l-362,0c-24.8125,0 -45,-20.1875 -45,-45l0,-362c0,-24.8125 20.1875,-45 45,-45l362,0c24.8125,0 45,20.1875 45,45l0,362zm0,0"/>
  <path fill="#ffffff" id="svg_2" d="m91,422l90,0l0,-212l-90,0l0,212zm30,-182l30,0l0,152l-30,0l0,-152zm0,0"/>
  <path fill="#ffffff" id="svg_3" d="m331.085938,210c-0.027344,0 -0.058594,0 -0.085938,0c-10.371094,0 -20.472656,1.734375 -30,5.101562l0,-5.101562l-90,0l0,212l90,0l0,-107c0,-8.269531 6.730469,-15 15,-15s15,6.730469 15,15l0,107l90,0l0,-117.3125c0,-48.546875 -39.382812,-94.640625 -89.914062,-94.6875zm59.914062,182l-30,0l0,-77c0,-24.8125 -20.1875,-45 -45,-45s-44.996094,20.1875 -45,44.996094l0,77.003906l-30,0l0,-152l30,0l0,30.019531l24.007812,-18.03125c10.441407,-7.84375 22.886719,-11.988281 35.992188,-11.988281l0.058594,0c31.929687,0.03125 59.941406,30.257812 59.941406,64.6875l0,87.3125zm0,0"/>
  <path fill="#ffffff" id="svg_4" d="m91,180l90,0l0,-90l-90,0l0,90zm30,-60l30,0l0,30l-30,0l0,-30zm0,0"/>
 </g>
</svg>