<svg width="384.97" height="384.97" xmlns="http://www.w3.org/2000/svg">

 <g>
  <title>background</title>
  <rect fill="none" id="canvas_background" height="402" width="582" y="-1" x="-1"/>
 </g>
 <g>
  <title>Layer 1</title>
  <g id="svg_1">
   <g id="Menu_1_">
    <path fill="#ffffff" d="m12.03,120.303l360.909,0c6.641,0 12.03,-5.39 12.03,-12.03c0,-6.641 -5.39,-12.03 -12.03,-12.03l-360.909,0c-6.641,0 -12.03,5.39 -12.03,12.03c0,6.64 5.39,12.03 12.03,12.03z" id="fill"/>
    <path fill="#ffffff" d="m372.939,180.455l-360.909,0c-6.641,0 -12.03,5.39 -12.03,12.03s5.39,12.03 12.03,12.03l360.909,0c6.641,0 12.03,-5.39 12.03,-12.03s-5.389,-12.03 -12.03,-12.03z" id="fill"/>
    <path fill="#ffffff" d="m372.939,264.667l-240.606,0c-6.641,0 -12.03,5.39 -12.03,12.03c0,6.641 5.39,12.03 12.03,12.03l240.606,0c6.641,0 12.03,-5.39 12.03,-12.03c0.001,-6.641 -5.389,-12.03 -12.03,-12.03z" id="fill"/>
   </g>
   <g id="svg_2"/>
   <g id="svg_3"/>
   <g id="svg_4"/>
   <g id="svg_5"/>
   <g id="svg_6"/>
   <g id="svg_7"/>
  </g>
  <g id="svg_8"/>
  <g id="svg_9"/>
  <g id="svg_10"/>
  <g id="svg_11"/>
  <g id="svg_12"/>
  <g id="svg_13"/>
  <g id="svg_14"/>
  <g id="svg_15"/>
  <g id="svg_16"/>
  <g id="svg_17"/>
  <g id="svg_18"/>
  <g id="svg_19"/>
  <g id="svg_20"/>
  <g id="svg_21"/>
  <g id="svg_22"/>
 </g>
</svg>