<svg id="_x33_0" enable-background="new 0 0 64 64" height="512" viewBox="0 0 64 64" width="512" xmlns="http://www.w3.org/2000/svg" xmlns:xlink="http://www.w3.org/1999/xlink"><linearGradient id="SVGID_1_" gradientUnits="userSpaceOnUse" x1="31.856" x2="31.856" y1="63" y2="1"><stop offset="0" stop-color="#9f2fff"/><stop offset="1" stop-color="#0bb1d3"/></linearGradient><path d="m22 31c1.615 0 3.067-.897 3.789-2.342l.105-.211-1.789-.895-.105.212c-.381.762-1.147 1.236-2 1.236-1.103 0-2-.897-2-2v-.142c1.721-.447 3-2 3-3.858 0-1.103-.897-2-2-2h-4v-2c0-2.206-1.794-4-4-4h-2c-1.103 0-2 .897-2 2 0 2.206 1.794 4 4 4h2v2c0 1.858 1.279 3.411 3 3.858v.142c0 1.103-.897 2-2 2-.853 0-1.619-.474-2-1.236l-.105-.211-1.789.895.105.21c.722 1.445 2.174 2.342 3.789 2.342 1.201 0 2.266-.542 3-1.382.734.84 1.799 1.382 3 1.382zm-9-12c-1.103 0-2-.897-2-2h2c1.103 0 2 .897 2 2zm4 4h4c0 1.103-.897 2-2 2s-2-.897-2-2zm6-2h2c2.206 0 4-1.794 4-4 0-1.103-.897-2-2-2h-2c-2.206 0-4 1.794-4 4 0 1.103.897 2 2 2zm0-2c0-1.103.897-2 2-2h2c0 1.103-.897 2-2 2l-2 .001zm31.836 25.455c5.265-5.85 8.164-13.405 8.164-21.275 0-2.835-.257-5.686-.764-8.472-.811-4.466-4.696-7.708-9.236-7.708-2.672 0-5.184 1.041-7.072 2.93s-2.929 4.401-2.928 7.072c.001 3.308 2.692 5.998 6 5.998 1.74 0 3.305-.749 4.402-1.936 1.032 1.522 1.598 3.318 1.598 5.179v1.608c0 3.75-1.239 7.467-3.489 10.468l-1.16 1.547c-1.702-1.523-3.794-2.645-6.152-3.2-4.377-1.029-8.372-3.255-11.554-6.436l-.079-.079c.823-.777 1.579-1.633 2.248-2.57l.492-.689-1.482-1.482c1.332-.604 2.408-1.636 3.071-2.962l.395-.79-.734-.49c-1.67-1.114-2.791-2.892-3.074-4.88l-.161-1.13c-.133-.939-.423-1.845-.834-2.71.987-1.861 1.513-3.941 1.513-6.053v-3.395c0-1.103-.897-2-2-2-1.436 0-2.853.23-4.214.684-2.744.915-4.985 2.798-6.375 5.312h-4.822c-1.392-2.515-3.632-4.397-6.375-5.312-1.361-.454-2.778-.684-4.214-.684-1.103 0-2 .897-2 2v3.395c0 2.112.526 4.19 1.513 6.05-.407.859-.698 1.769-.832 2.713l-.161 1.13c-.283 1.988-1.404 3.766-3.074 4.88l-.734.49.395.79c.663 1.326 1.739 2.359 3.071 2.962l-1.482 1.482.492.689c2.196 3.077 5.305 5.326 8.812 6.499v3.092c0 1.457.828 2.712 2.029 3.358.002.043.005.086.008.129l-6.563 7.138c-1.595 1.823-2.474 4.161-2.474 6.585v2.618c0 2.206 1.794 4 4 4h2.172c2.11 0 3.828-1.717 3.828-3.828 0-1.022-.398-1.984-1.121-2.708l-.803-.803c2.897-.595 5.352-2.626 6.477-5.366.016.006.03.016.046.022l3.15 1.259.947 5.682c-1.132.36-2.128 1.086-2.806 2.102-.584.875-.892 1.896-.891 2.949.002 1.483 1.21 2.69 2.693 2.69h5.308c2.206 0 4-1.794 4-4v-2.083c0-1.677.121-3.356.339-5.02.804 1.123 1.927 2.02 3.269 2.524l1.08.405c.172.065.338.141.502.221l-.687.275c-1.521.609-2.503 2.06-2.503 3.698 0 2.195 1.786 3.981 3.981 3.981h7.111c1.458 0 2.854-.448 4.04-1.295 3.675-2.624 5.868-6.886 5.868-11.4 0-1.768-.335-3.464-.936-5.033zm-26.417-40.874c1.156-.386 2.361-.581 3.581-.581v1.166c-.773.113-1.539.27-2.279.517-1.533.511-2.942 1.367-4.13 2.462-.521-.09-1.05-.15-1.59-.15-.003 0-.007 0-.011 0h-.218c1.148-1.588 2.751-2.782 4.647-3.414zm3.581 2.6v.213c0 1.386-.276 2.752-.785 4.032-.915-1.121-2.053-1.992-3.326-2.577.757-.536 1.584-.975 2.464-1.268.538-.179 1.09-.303 1.647-.4zm-26-3.181c1.22 0 2.425.195 3.581.581 1.895.632 3.498 1.826 4.647 3.415h-.217c-.004 0-.007 0-.011 0-.54 0-1.069.06-1.591.15-1.188-1.095-2.597-1.951-4.13-2.462-.74-.248-1.506-.404-2.279-.518zm0 3.181c.557.097 1.109.221 1.646.4.882.294 1.71.734 2.469 1.271-1.262.583-2.397 1.453-3.328 2.579-.511-1.28-.787-2.649-.787-4.036zm-.678 20.911 2.529-2.529-2.414-.805c-.851-.283-1.577-.806-2.107-1.505 1.713-1.429 2.852-3.453 3.17-5.683l.161-1.131c.188-1.324.733-2.582 1.625-3.696 1.397-1.746 3.48-2.747 5.714-2.747h.009 9.982c2.255-.038 4.324.999 5.771 2.808.844 1.054 1.389 2.312 1.577 3.637l.161 1.13c.318 2.229 1.457 4.254 3.17 5.683-.53.699-1.257 1.222-2.107 1.505l-2.414.805 2.529 2.529c-2.969 3.713-7.498 5.907-12.281 5.907h-2.795c-4.782 0-9.311-2.194-12.28-5.908zm14.678 8.908c0 .551-.448 1-1 1s-1-.449-1-1 .448-1 1-1 1 .449 1 1zm-6 1.171v-2.551c.724.151 1.459.258 2.204.317-.127.332-.204.688-.204 1.063 0 .977.476 1.837 1.201 2.385l-.08.08c-.341.34-.811.535-1.293.535-1.008 0-1.828-.82-1.828-1.829zm3.732 10.305c-.896 2.239-2.93 3.876-5.308 4.273-.68.113-1.231.59-1.441 1.246-.21.655-.038 1.364.448 1.851l1.033 1.032c.346.346.536.805.536 1.294 0 1.008-.82 1.828-1.828 1.828h-.172v-2h-2v2c-1.103 0-2-.897-2-2v-2.618c0-1.938.703-3.81 1.963-5.25l5.572-6.061c.585 1.614 1.63 3.052 3.029 4.102.074.055.156.098.231.15zm2.611-1.016c-.563-.226-1.095-.524-1.58-.888-1.479-1.11-2.443-2.783-2.693-4.596.931-.058 1.8-.433 2.465-1.098l.465-.464.465.464c.512.513 1.148.853 1.837 1.013l1.063 6.378zm1.829-7.46c-.481 0-.952-.195-1.293-.536l-.079-.079c.724-.548 1.2-1.408 1.2-2.385 0-.375-.077-.731-.204-1.062.744-.059 1.48-.166 2.204-.317v2.551c0 1.008-.82 1.828-1.828 1.828zm25.799 21.078c-.845.603-1.84.922-2.878.922h-5.093v-2h-2v2h-.019c-1.092 0-1.981-.889-1.981-1.981 0-.815.489-1.537 1.245-1.839l1.766-.707c.452.537.811 1.156 1.04 1.844l1.896-.633c-.731-2.194-2.393-3.918-4.558-4.73l-1.079-.405c-1.979-.743-3.31-2.663-3.31-4.778 0-1.945 1.081-3.694 2.82-4.563l2.627-1.313-.895-1.789-2.627 1.313c-.963.482-1.773 1.162-2.409 1.971-.223-.811-.506-1.606-.882-2.358l-1.74-3.479-1.789.895 1.74 3.479c.756 1.511 1.155 3.202 1.155 4.891 0 .716-.071 1.438-.212 2.145-.523 2.61-.788 5.286-.788 7.954v2.083c0 1.103-.897 2-2 2h-2v-2h-2v2h-1.307c-.381 0-.693-.311-.693-.692-.001-.657.191-1.292.555-1.837.614-.921 1.641-1.471 2.748-1.471h1.697v-2h-1.319l-2.366-14.194c1.55-.49 2.685-1.924 2.685-3.635v-3.091c1.806-.604 3.507-1.491 5.031-2.634l.199.199c3.444 3.444 7.771 5.854 12.51 6.969 5.452 1.283 9.26 6.09 9.26 11.691 0 3.87-1.88 7.523-5.029 9.773zm5.177-16.748c-.405-.708-.873-1.376-1.395-2.001l1.357-1.809c2.509-3.345 3.89-7.489 3.89-11.669v-1.608c0-2.549-.869-4.999-2.445-6.983.285-.698.445-1.46.445-2.26 0-2.226-1.508-4.158-3.668-4.698l-1.09-.272-.484 1.94 1.09.272c1.266.318 2.152 1.451 2.152 2.758 0 2.206-1.795 4-4.001 4-2.204 0-3.998-1.793-3.999-3.998 0-2.137.831-4.147 2.343-5.658 1.511-1.511 3.519-2.344 5.657-2.344 3.573 0 6.63 2.551 7.269 6.066.485 2.668.731 5.398.731 8.114 0 7.375-2.717 14.455-7.634 19.918z" fill="url(#SVGID_1_)"/></svg>