<svg id="Layer_5" enable-background="new 0 0 64 64" height="512" viewBox="0 0 64 64" width="512" xmlns="http://www.w3.org/2000/svg" xmlns:xlink="http://www.w3.org/1999/xlink"><linearGradient id="SVGID_1_" gradientUnits="userSpaceOnUse" x1="32" x2="32" y1="63" y2="1"><stop offset="0" stop-color="#9f2fff"/><stop offset="1" stop-color="#0bb1d3"/></linearGradient><path d="m33 9h-26c-1.103 0-2 .897-2 2v42c0 1.103.897 2 2 2h26c1.103 0 2-.897 2-2v-42c0-1.103-.897-2-2-2zm-26 44v-42h26l.001 42zm18-46h-6v-2h6zm-8 0h-2v-2h2zm-2 50h10v2h-10zm16-20h-13.749l-.251-3c0-1.654-1.346-3-3-3h-2c-1.654 0-3 1.346-3 3s1.346 3 3 3h3.247l.684 8.206c-1.126.432-1.931 1.518-1.931 2.794 0 1.654 1.346 3 3 3s3-1.346 3-3c0-.352-.072-.686-.184-1h5.369c-.113.314-.185.648-.185 1 0 1.654 1.346 3 3 3s3-1.346 3-3c0-1.209-.722-2.246-1.754-2.721l1.716-6.004zm-19-2c-.551 0-1-.449-1-1s.449-1 1-1h2c.551 0 1 .449 1.003 1.083l.077.917zm16.96 4-1.714 6h-9.326l-.502-6zm-10.96 9c0 .551-.449 1-1 1s-1-.449-1-1 .449-1 1-1 1 .449 1 1zm10 1c-.551 0-1-.449-1-1s.449-1 1-1 1 .449 1 1-.449 1-1 1zm-13-36h-6v6h6zm-2 4h-2v-2h2zm10-4h-6v6h6zm-2 4h-2v-2h2zm4 2h6v-6h-6zm2-4h2v2h-2zm-12 6h-6v6h6zm-2 4h-2v-2h2zm10-4h-6v6h6zm-2 4h-2v-2h2zm4 2h6v-6h-6zm2-4h2v2h-2zm17 26c-1.654 0-3 1.346-3 3s1.346 3 3 3 3-1.346 3-3-1.346-3-3-3zm0 4c-.551 0-1-.449-1-1s.449-1 1-1 1 .449 1 1-.449 1-1 1zm7-1h-2c0-2.757-2.243-5-5-5v-2c3.86 0 7 3.14 7 7zm4 0h-2c0-4.962-4.038-9-9-9v-2c6.065 0 11 4.935 11 11zm5-31h-1v-13c0-1.654-1.346-3-3-3h-17.101c-.465-2.279-2.485-4-4.899-4h-28c-2.757 0-5 2.243-5 5v52c0 2.757 2.243 5 5 5h28c2.414 0 4.434-1.721 4.899-4h17.101c1.654 0 3-1.346 3-3v-15h1c1.654 0 3-1.346 3-3v-14c0-1.654-1.346-3-3-3zm-23 37c0 1.654-1.346 3-3 3h-28c-1.654 0-3-1.346-3-3v-52c0-1.654 1.346-3 3-3h28c1.654 0 3 1.346 3 3zm20-50v13h-7.586l4.293-4.293c.834-.833 1.293-1.942 1.293-3.121v-.172c0-2.434-1.98-4.414-4.414-4.414h-.172c-.871 0-1.703.25-2.414.717-.711-.467-1.543-.717-2.414-.717h-.172c-2.434 0-4.414 1.98-4.414 4.414v.172c0 1.179.459 2.288 1.293 3.121l4.293 4.293h-.586c-1.654 0-3 1.346-3 3v1h-4v-18h17c.551 0 1 .449 1 1zm-9 11.586-4.293-4.293c-.449-.449-.707-1.072-.707-1.707v-.172c0-1.331 1.083-2.414 2.414-2.414h.172c.635 0 1.258.258 1.707.707l.707.707.707-.707c.449-.449 1.072-.707 1.707-.707h.172c1.331 0 2.414 1.083 2.414 2.414v.172c0 .635-.258 1.258-.707 1.707zm-9 17.414v-10h4v10zm18 19c0 .551-.449 1-1 1h-17v-18h17c.551 0 1 .449 1 1zm4-18c0 .551-.449 1-1 1h-1.184c-.414-1.161-1.514-2-2.816-2h-7.764l12-6-13.236-6.618v12.618h-2v-13c0-.551.449-1 1-1h14c.551 0 1 .449 1 1zm-12-3.618v-6.764l6.764 3.382z" fill="url(#SVGID_1_)"/></svg>